<?xml version="1.0" encoding="UTF-8" standalone="no"?>
<!-- Created with Inkscape (http://www.inkscape.org/) -->

<svg
   xmlns:dc="http://purl.org/dc/elements/1.1/"
   xmlns:cc="http://creativecommons.org/ns#"
   xmlns:rdf="http://www.w3.org/1999/02/22-rdf-syntax-ns#"
   xmlns:svg="http://www.w3.org/2000/svg"
   xmlns="http://www.w3.org/2000/svg"
   xmlns:sodipodi="http://sodipodi.sourceforge.net/DTD/sodipodi-0.dtd"
   xmlns:inkscape="http://www.inkscape.org/namespaces/inkscape"
   width="210mm"
   height="297mm"
   viewBox="0 0 744.09448819 1052.3622047"
   id="svg2"
   version="1.1"
   inkscape:version="0.91 r13725"
   sodipodi:docname="logo-pedrosogamework.svg"
   inkscape:export-filename="C:\Users\tiago\OneDrive\Documentos\Fatec\ProgramaçãoAvançada\PedrosoGameWorkSwing\logo-pedrosogamework.png"
   inkscape:export-xdpi="90"
   inkscape:export-ydpi="90">
  <defs
     id="defs4" />
  <sodipodi:namedview
     id="base"
     pagecolor="#ffffff"
     bordercolor="#666666"
     borderopacity="1.0"
     inkscape:pageopacity="0.0"
     inkscape:pageshadow="2"
     inkscape:zoom="0.98994949"
     inkscape:cx="125.79754"
     inkscape:cy="704.62708"
     inkscape:document-units="px"
     inkscape:current-layer="layer1"
     showgrid="false"
     inkscape:window-width="1366"
     inkscape:window-height="705"
     inkscape:window-x="-8"
     inkscape:window-y="-8"
     inkscape:window-maximized="1" />
  <metadata
     id="metadata7">
    <rdf:RDF>
      <cc:Work
         rdf:about="">
        <dc:format>image/svg+xml</dc:format>
        <dc:type
           rdf:resource="http://purl.org/dc/dcmitype/StillImage" />
        <dc:title></dc:title>
      </cc:Work>
    </rdf:RDF>
  </metadata>
  <g
     inkscape:label="Camada 1"
     inkscape:groupmode="layer"
     id="layer1">
    <rect
       style="fill:#000000;fill-rule:evenodd;stroke:#000000;stroke-width:1;stroke-linecap:butt;stroke-linejoin:miter;stroke-opacity:1;stroke-miterlimit:4;stroke-dasharray:none"
       id="rect3347"
       width="341.87756"
       height="341.87756"
       x="156.71407"
       y="143.57002" />
    <path
       inkscape:connector-curvature="0"
       id="path4186"
       d="m 201.156,475.99774 c -1.3646,-0.20765 -2.44627,-0.47604 -4.08999,-1.01482 -12.77562,-4.18754 -22.36296,-14.85529 -25.17556,-28.01261 -0.69861,-3.2681 -0.82311,-9.84337 -0.26805,-14.15734 0.18028,-1.40114 1.01851,-4.6481 1.64446,-6.36996 1.94341,-5.34587 4.88505,-9.9736 8.87778,-13.96633 5.31589,-5.31589 11.88778,-8.84797 19.18418,-10.31056 4.00299,-0.80242 0.98075,-0.74813 41.64875,-0.74813 38.78491,0 37.41534,-0.0178 40.66947,0.52837 6.64284,1.11494 12.82982,3.99656 18.08812,8.42468 1.41943,1.19533 3.96541,3.81517 5.11531,5.26372 4.29271,5.4076 7.02727,11.87912 7.908,18.71479 0.15671,1.21628 0.18071,2.18835 0.13514,5.47253 -0.0505,3.64046 -0.0815,4.13705 -0.35005,5.61681 -1.48207,8.16555 -5.17785,15.17519 -10.93341,20.73697 -4.55098,4.39778 -9.79902,7.45756 -15.81552,9.22104 -2.197,0.64393 -2.72059,0.67779 -10.48419,0.67779 -7.72155,0 -8.1304,-0.0266 -10.36899,-0.67323 -5.70723,-1.64874 -10.7134,-4.47376 -15.2857,-8.62585 l -1.11477,-1.0123 -7.49773,0 -7.49773,0 -1.00762,0.94055 c -4.31934,4.03183 -9.5571,7.01531 -15.23618,8.67862 -0.79207,0.232 -1.82897,0.47615 -2.30422,0.5426 -1.0958,0.15319 -14.89646,0.2165 -15.8415,0.0727 z m 9.61788,-9.42974 c 7.51131,-0.58389 14.46013,-4.13619 19.11827,-9.7734 0.52155,-0.63117 1.06097,-1.17781 1.19869,-1.21476 0.34469,-0.0924 23.69468,-0.0656 23.99458,0.0276 0.13261,0.0412 0.62992,0.54152 1.10513,1.11182 7.47627,8.97223 19.8296,12.26592 30.72223,8.19128 5.45435,-2.04033 10.13703,-5.75644 13.344,-10.58961 2.09743,-3.16102 3.52475,-6.80163 4.25412,-10.85093 0.25101,-1.39352 0.35144,-5.72695 0.16976,-7.32486 -1.21826,-10.71484 -8.53874,-19.7644 -18.67551,-23.0866 -1.66036,-0.54417 -2.8858,-0.84188 -4.83515,-1.17467 -1.14195,-0.19496 -3.21687,-0.2086 -37.04032,-0.24363 -24.74272,-0.0256 -36.3013,0.001 -37.35165,0.0862 -6.79952,0.55108 -12.62534,3.23189 -17.38182,7.99844 -2.37554,2.38058 -3.8524,4.43001 -5.23886,7.26999 -1.69546,3.47292 -2.48175,6.39463 -2.78299,10.34093 -0.49285,6.45652 1.4855,13.02457 5.56741,18.48368 1.07574,1.43868 3.75143,4.11861 5.17017,5.17835 5.52193,4.12467 12.07929,6.08191 18.66194,5.57022 z m -5.68457,-10.78564 c -0.37858,-0.11628 -0.73956,-0.35163 -1.11464,-0.7267 -0.89195,-0.89196 -0.91769,-1.05894 -0.91769,-5.95496 l 0,-4.178 -4.40682,-0.0351 -4.40682,-0.0351 -0.5932,-0.31286 c -0.32625,-0.17208 -0.75357,-0.50742 -0.94958,-0.74522 -0.67475,-0.8186 -0.72058,-1.14782 -0.68147,-4.89562 0.0337,-3.23207 0.0463,-3.39905 0.2905,-3.85565 0.14039,-0.2625 0.47511,-0.66547 0.74384,-0.89548 0.84304,-0.72161 1.12718,-0.75866 5.81926,-0.75866 l 4.18429,0 0,-4.18428 c 0,-4.89115 0.0274,-5.07093 0.9056,-5.94917 0.87511,-0.87511 1.14268,-0.9268 4.79696,-0.9268 3.47548,0 3.93622,0.0686 4.6992,0.69962 0.2398,0.19832 0.5768,0.62753 0.74887,0.95379 l 0.31286,0.5932 0.0351,4.40682 0.0351,4.40682 4.17799,0 c 4.89641,0 5.06294,0.0257 5.95536,0.91809 0.8793,0.87929 0.93451,1.19474 0.89212,5.09631 -0.0349,3.20921 -0.0399,3.26881 -0.32103,3.81931 -0.3127,0.61221 -0.70202,0.98708 -1.42913,1.37606 -0.46132,0.2468 -0.59423,0.25468 -4.87371,0.28878 l -4.39945,0.0351 -0.0361,4.40056 -0.0362,4.40057 -0.34563,0.62451 c -0.39647,0.71636 -1.14489,1.31818 -1.8656,1.50014 -0.78224,0.1975 -6.53313,0.14488 -7.21993,-0.0661 z m 71.05312,0.0232 c -2.62641,-0.59838 -4.53493,-2.95335 -4.53493,-5.59577 0,-2.79636 2.14744,-5.25272 4.93397,-5.64375 1.88404,-0.26438 3.60962,0.35215 4.94884,1.76818 1.01671,1.07501 1.52034,2.35885 1.52034,3.87557 0,1.51672 -0.50363,2.80057 -1.52034,3.87557 -1.41814,1.49948 -3.44917,2.15278 -5.34788,1.7202 z m -10.87154,-11.02629 c -2.07637,-0.34043 -4.00724,-2.12122 -4.54704,-4.19361 -0.74788,-2.87133 0.85104,-5.844 3.69227,-6.86455 0.96958,-0.34827 2.71618,-0.34984 3.66814,-0.004 2.84883,1.03705 4.44006,3.99685 3.69226,6.86784 -0.55372,2.12587 -2.47394,3.85738 -4.66225,4.20406 -0.84806,0.13435 -0.96421,0.13369 -1.84338,-0.0104 z m 22.23571,0.0187 c -3.08136,-0.56601 -5.21781,-3.46459 -4.75542,-6.45184 0.48421,-3.12822 3.41389,-5.32315 6.48359,-4.85752 2.80937,0.42613 4.84072,2.7662 4.86424,5.60345 0.0166,2.0053 -0.96753,3.8005 -2.68907,4.90521 -1.03124,0.66175 -2.74546,1.01339 -3.90334,0.8007 z m -12.00824,-11.32642 c -4.11886,-1.44117 -5.20996,-6.62772 -2.01825,-9.59374 2.26957,-2.10908 5.69596,-2.02682 7.91274,0.18996 0.6898,0.6898 1.29085,1.75043 1.49549,2.639 0.0657,0.28514 0.12067,0.91478 0.12222,1.39919 0.007,2.21678 -1.25941,4.16948 -3.3383,5.14699 -0.79458,0.37363 -0.96601,0.40966 -2.1314,0.44807 -1.10177,0.0363 -1.36859,0.006 -2.0425,-0.22947 z m -37.39421,-34.55366 c -0.17005,-0.17006 -0.17569,-0.96391 -0.0179,-2.5282 1.08938,-10.80247 8.87078,-19.73689 19.40802,-22.28385 2.82764,-0.68347 2.2216,-0.66001 19.12493,-0.74032 15.2882,-0.0726 15.57018,-0.078 16.53277,-0.31601 2.2405,-0.55392 4.14191,-1.44524 5.88982,-2.76094 3.40851,-2.56567 5.51795,-6.30831 5.98309,-10.61534 0.0661,-0.61256 0.14718,-1.20447 0.18002,-1.31536 0.0557,-0.18796 0.39485,-0.20162 5.00606,-0.20162 l 4.9463,0 0.001,0.77768 c 0.002,1.14122 -0.21363,3.5138 -0.42029,4.63724 -0.28179,1.53191 -1.14603,4.00988 -2.00106,5.73748 -3.97252,8.02656 -11.58556,13.29879 -20.48999,14.18983 -0.7511,0.0752 -6.47052,0.12023 -15.43826,0.12164 -15.40828,0.003 -15.5659,0.008 -17.67479,0.62439 -6.01135,1.757 -10.49348,7.31289 -10.88021,13.48671 -0.0357,0.57029 -0.11616,1.1017 -0.17875,1.18091 -0.16136,0.20419 -9.76671,0.20974 -9.9707,0.006 z"
       style="fill:#d0d0d0" />
    <text
       xml:space="preserve"
       style="font-style:normal;font-variant:normal;font-weight:bold;font-stretch:normal;font-size:226.63269043px;line-height:125%;font-family:'Berlin Sans FB Demi';-inkscape-font-specification:'Berlin Sans FB Demi, Bold';text-align:start;letter-spacing:0px;word-spacing:0px;writing-mode:lr-tb;text-anchor:start;fill:#ff0000;fill-opacity:1;stroke:#d0d0d0;stroke-width:4.99999998;stroke-linecap:butt;stroke-linejoin:miter;stroke-opacity:1;stroke-miterlimit:4;stroke-dasharray:none"
       x="104.96867"
       y="391.63535"
       id="text4149"
       sodipodi:linespacing="125%"
       transform="matrix(0.9770102,-0.21319258,0.21319258,0.9770102,0,0)"><tspan
         sodipodi:role="line"
         id="tspan4151"
         x="104.96867"
         y="391.63535">P</tspan></text>
    <g
       id="g4209">
      <text
         transform="matrix(0.90583263,-0.18686731,0.21844274,1.0588934,0,0)"
         xml:space="preserve"
         style="font-style:normal;font-variant:normal;font-weight:normal;font-stretch:normal;font-size:168.46792603px;line-height:125%;font-family:Akbar;-inkscape-font-specification:'Akbar, Normal';text-align:start;letter-spacing:0px;word-spacing:0px;writing-mode:lr-tb;text-anchor:start;fill:#0000ff;fill-opacity:1;stroke:#d0d0d0;stroke-width:20;stroke-linecap:butt;stroke-linejoin:miter;stroke-opacity:1;stroke-miterlimit:4;stroke-dasharray:none"
         x="248.98935"
         y="499.56711"
         id="text4153"
         sodipodi:linespacing="125%"><tspan
           sodipodi:role="line"
           id="tspan4155"
           x="248.98935"
           y="499.56711">W</tspan></text>
      <text
         sodipodi:linespacing="125%"
         id="text4205"
         y="500.48212"
         x="248.76868"
         style="font-style:normal;font-variant:normal;font-weight:normal;font-stretch:normal;font-size:168.46792603px;line-height:125%;font-family:Akbar;-inkscape-font-specification:'Akbar, Normal';text-align:start;letter-spacing:0px;word-spacing:0px;writing-mode:lr-tb;text-anchor:start;fill:#0000ff;fill-opacity:1;stroke:#0000ff;stroke-width:10;stroke-linecap:butt;stroke-linejoin:miter;stroke-miterlimit:4;stroke-dasharray:none;stroke-opacity:1"
         xml:space="preserve"
         transform="matrix(0.90583263,-0.18686731,0.21844274,1.0588934,0,0)"><tspan
           y="500.48212"
           x="248.76868"
           id="tspan4207"
           sodipodi:role="line">W</tspan></text>
    </g>
    <g
       id="g4199">
      <text
         sodipodi:linespacing="125%"
         id="text4157"
         y="290.83261"
         x="283.22583"
         style="font-style:normal;font-variant:normal;font-weight:normal;font-stretch:normal;font-size:420.00112915px;line-height:125%;font-family:Pixelade;-inkscape-font-specification:'Pixelade, Normal';text-align:start;letter-spacing:0px;word-spacing:0px;writing-mode:lr-tb;text-anchor:start;fill:none;fill-opacity:1;stroke:#008000;stroke-width:20;stroke-linecap:butt;stroke-linejoin:miter;stroke-miterlimit:4;stroke-dasharray:none;stroke-opacity:1;"
         xml:space="preserve"
         transform="matrix(1.1634455,0.40117047,-0.26487885,0.76818245,0,0)"><tspan
           style="stroke-width:20;fill:none;stroke-miterlimit:4;stroke-dasharray:none;stroke:#008000;stroke-opacity:1;"
           y="290.83261"
           x="283.22583"
           id="tspan4159"
           sodipodi:role="line">G</tspan></text>
      <text
         transform="matrix(1.1634455,0.40117047,-0.26487885,0.76818245,0,0)"
         xml:space="preserve"
         style="font-style:normal;font-variant:normal;font-weight:normal;font-stretch:normal;font-size:420.00112915px;line-height:125%;font-family:Pixelade;-inkscape-font-specification:'Pixelade, Normal';text-align:start;letter-spacing:0px;word-spacing:0px;writing-mode:lr-tb;text-anchor:start;fill:none;fill-opacity:1;stroke:#00ff00;stroke-width:13;stroke-linecap:butt;stroke-linejoin:miter;stroke-miterlimit:4;stroke-dasharray:none;stroke-opacity:1"
         x="283.2258"
         y="290.83261"
         id="text4195"
         sodipodi:linespacing="125%"><tspan
           sodipodi:role="line"
           id="tspan4197"
           x="283.2258"
           y="290.83261"
           style="fill:none;stroke-width:13;stroke-miterlimit:4;stroke-dasharray:none">G</tspan></text>
    </g>
  </g>
</svg>
